HIERARCHY
ROOT Hips
{
	OFFSET 0.000000 0.000000 0.000000 
	CHANNELS 6 Xposition Yposition Zposition Zrotation Yrotation Xrotation
	JOINT LeftUpLeg
	{
		OFFSET 1.363060 -1.794630 0.839290 
		CHANNELS 3 Zrotation Yrotation Xrotation
		JOINT LeftLeg
		{
			OFFSET 2.448110 -6.726130 0.000000 
			CHANNELS 3 Zrotation Yrotation Xrotation
			JOINT LeftFoot
			{
				OFFSET 2.562200 -7.039590 0.000000 
				CHANNELS 3 Zrotation Yrotation Xrotation
				JOINT LeftToeBase
				{
					OFFSET 0.157640 -0.433110 2.322550 
					CHANNELS 3 Zrotation Yrotation Xrotation
					End Site
					{
						OFFSET 0.000000 0.000000 0.000000 
					}
				}
			}
		}
	}
	JOINT RightUpLeg
	{
		OFFSET -1.305520 -1.794630 0.839290 
		CHANNELS 3 Zrotation Yrotation Xrotation
		JOINT RightLeg
		{
			OFFSET -2.542530 -6.985550 0.000000 
			CHANNELS 3 Zrotation Yrotation Xrotation
			JOINT RightFoot
			{
				OFFSET -2.568260 -7.056230 0.000000 
				CHANNELS 3 Zrotation Yrotation Xrotation
				JOINT RightToeBase
				{
					OFFSET -0.164730 -0.452590 2.363150 
					CHANNELS 3 Zrotation Yrotation Xrotation
					End Site
					{
						OFFSET 0.000000 0.000000 0.000000 
					}
				}
			}
		}
	}
	JOINT Spine
	{
		OFFSET 0.028270 2.035590 -0.193380 
		CHANNELS 3 Zrotation Yrotation Xrotation
		JOINT Spine1
		{
			OFFSET 0.056720 2.048850 -0.042750 
			CHANNELS 3 Zrotation Yrotation Xrotation
			JOINT Neck1
			{
				OFFSET -0.054170 1.746240 0.172020 
				CHANNELS 3 Zrotation Yrotation Xrotation
				JOINT Head
				{
					OFFSET 0.104070 1.761360 -0.123970 
					CHANNELS 3 Zrotation Yrotation Xrotation
					End Site
					{
						OFFSET 0.000000 0.000000 0.000000 
					}
				}
			}
			JOINT LeftArm
			{
				OFFSET 3.362410 1.200890 -0.311210 
				CHANNELS 3 Zrotation Yrotation Xrotation
				JOINT LeftForeArm
				{
					OFFSET 4.983000 -0.000000 -0.000000 
					CHANNELS 3 Zrotation Yrotation Xrotation
					JOINT LeftHand
					{
						OFFSET 3.483560 -0.000000 -0.000000 
						CHANNELS 3 Zrotation Yrotation Xrotation
						JOINT LeftHandIndex1
						{
							OFFSET 0.715260 -0.000000 -0.000000 
							CHANNELS 3 Zrotation Yrotation Xrotation
							End Site
							{
								OFFSET 0.000000 0.000000 0.000000 
							}
						}
					}
				}
			}
			JOINT RightArm
			{
				OFFSET -3.136600 1.374050 -0.404650 
				CHANNELS 3 Zrotation Yrotation Xrotation
				JOINT RightForeArm
				{
					OFFSET -5.241900 -0.000000 -0.000000 
					CHANNELS 3 Zrotation Yrotation Xrotation
					JOINT RightHand
					{
						OFFSET -3.444170 -0.000000 -0.000000 
						CHANNELS 3 Zrotation Yrotation Xrotation
						JOINT RightHandIndex1
						{
							OFFSET -0.622530 -0.000000 -0.000000 
							CHANNELS 3 Zrotation Yrotation Xrotation
							End Site
							{
								OFFSET 0.000000 0.000000 0.000000 
							}
						}
					}
				}
			}
		}
	}
}
MOTION
Frames: 9
Frame Time: 0.041667
43.108870 17.835834 5.403057 -94.918818 -85.129287 108.895232 -11.708307 -5.953058 -7.525536 -0.065738 3.951763 9.955335 0.144073 1.053444 1.863517 0.417700 -4.148400 -11.494500 27.371288 5.107134 -9.286915 -0.483147 -5.289951 13.443209 1.561423 -12.607892 -7.659496 -0.735000 -5.477100 15.274600 1.380481 -2.246864 -5.613725 5.606949 -1.388935 -0.756784 7.448504 -10.771167 8.550719 3.425100 -5.226800 8.196500 -96.302406 2.183993 7.075905 12.265981 -30.741518 -3.404556 1.800722 2.536923 28.814410 -7.125000 0.000000 0.000000 89.922169 2.543876 11.655415 -10.906742 22.998971 -2.212478 -0.815250 0.263692 19.088560 7.125000 0.000000 0.000000 
43.115011 17.806219 5.407812 -95.024099 -85.318162 109.015992 -12.044393 -5.980658 -7.485286 -0.066757 3.948746 9.939361 0.146630 0.969909 1.207706 0.364700 -3.879500 -10.737900 27.176532 5.009547 -9.317154 -0.478323 -5.274496 13.409399 1.534037 -12.487301 -8.186509 -0.803400 -5.720700 15.976100 1.326850 -2.263028 -5.607784 5.511052 -1.399343 -0.708970 7.514195 -10.810184 8.564456 3.456900 -5.243100 8.211700 -96.214158 2.071476 7.040688 12.360800 -30.827293 -3.430968 1.786118 2.535858 28.755651 -7.125000 0.000000 0.000000 89.952178 2.514383 11.931118 -10.975288 23.110578 -2.235140 -0.820548 0.253600 19.124788 7.125000 0.000000 0.000000 
43.123530 17.774326 5.405435 -94.775258 -85.156060 108.727927 -11.840934 -5.942517 -7.412833 -0.067561 3.932419 9.900399 0.144336 0.934914 0.577233 0.314700 -3.606000 -9.970800 27.477755 5.165088 -9.170203 -0.463445 -5.226326 13.272759 1.551533 -12.629925 -8.697805 -0.847100 -5.870200 16.408200 1.351112 -2.266826 -5.659037 5.477458 -1.403099 -0.905466 7.553813 -10.773689 8.533792 3.487900 -5.230600 8.177000 -96.172892 2.247148 6.983276 12.556715 -31.021804 -3.488067 1.773567 2.534503 28.655083 -7.125000 0.000000 0.000000 89.920228 2.322116 12.218180 -11.001055 23.147690 -2.245455 -0.818094 0.258805 19.032389 7.125000 0.000000 0.000000 
43.130661 17.741640 5.408208 -95.252707 -85.071061 109.205125 -11.826932 -6.049645 -7.296446 -0.074100 3.889992 9.775720 0.115735 1.099547 -0.035412 0.279400 -3.399600 -9.393200 27.663811 5.353813 -9.122134 -0.461026 -5.231898 13.290669 1.567453 -12.771353 -9.215004 -0.865300 -5.931500 16.585900 1.349080 -2.206661 -5.659842 5.427079 -1.373534 -0.893369 7.606436 -10.821478 8.567259 3.519100 -5.255500 8.190400 -96.156112 2.225278 6.980092 12.694372 -31.172782 -3.534199 1.779189 2.538822 28.521928 -7.125000 0.000000 0.000000 89.911241 2.325400 12.178259 -10.995842 23.142675 -2.248717 -0.813409 0.263673 19.064833 7.125000 0.000000 0.000000 
43.139080 17.711232 5.410189 -94.493048 -84.980438 108.405548 -11.797569 -6.130247 -7.154919 -0.076730 3.865419 9.709608 0.097467 1.201518 -0.703413 0.234000 -3.113300 -8.594400 27.874801 5.429593 -9.009237 -0.450083 -5.200963 13.200453 1.579130 -12.892211 -9.692400 -0.902900 -6.055700 16.946000 1.354485 -2.210669 -5.661395 5.355826 -1.378392 -0.918573 7.565409 -10.806055 8.591687 3.509600 -5.253200 8.188100 -96.137087 2.217962 6.870004 12.829665 -31.306181 -3.574762 1.767216 2.533974 28.277058 -7.125000 0.000000 0.000000 89.925637 2.307600 12.212964 -11.015441 23.168643 -2.243476 -0.825388 0.251275 19.022462 7.125000 0.000000 0.000000 
43.144924 17.678942 5.413160 -94.572819 -84.841036 108.525375 -11.731496 -6.297804 -6.940539 -0.090949 3.773145 9.446104 0.056163 1.472436 -1.435605 0.129200 -2.316700 -6.381800 28.117992 5.617551 -8.914129 -0.437201 -5.160809 13.085014 1.589799 -13.012396 -10.158629 -0.940700 -6.177600 17.300500 1.366241 -2.156438 -5.596479 5.322124 -1.352011 -0.657655 7.795871 -10.854847 8.317247 3.623100 -5.270700 8.071300 -96.198687 1.964029 6.617092 12.846087 -31.345339 -3.598382 1.800480 2.564349 28.231873 -7.125000 0.000000 0.000000 89.944058 2.508080 11.960109 -10.983431 23.133069 -2.247130 -0.813250 0.263569 19.101617 7.125000 0.000000 0.000000 
43.153046 17.651209 5.415537 -94.330031 -84.720527 108.255133 -11.656471 -6.630889 -6.609956 -0.108933 3.653267 9.112161 0.014868 1.749759 -2.053291 0.054300 -1.503500 -4.135300 28.353498 5.713314 -8.749054 -0.418200 -5.088468 12.877762 1.618557 -13.214317 -10.467951 -0.942800 -6.184400 17.320300 1.374971 -2.139775 -5.584587 5.270641 -1.344047 -0.632948 7.715866 -10.829998 8.318389 3.594700 -5.264300 8.059100 -96.268649 1.846711 6.202742 12.849263 -31.340051 -3.609542 1.819953 2.563498 28.183419 -7.125000 0.000000 0.000000 89.981355 2.591829 11.742557 -10.916721 23.025489 -2.214048 -0.819439 0.263719 19.261998 7.125000 0.000000 0.000000 
43.158791 17.623773 5.419301 -94.336914 -84.585020 108.289863 -11.601382 -6.962391 -6.276735 -0.128502 3.518478 8.733125 -0.060341 2.246288 -2.605273 0.034000 -1.190200 -3.272200 28.568580 5.825447 -8.698518 -0.410603 -5.066506 12.815122 1.622841 -13.290200 -10.823125 -0.971800 -6.275900 17.587100 1.373474 -2.118258 -5.587165 5.159252 -1.335554 -0.606467 7.657688 -10.785163 8.427915 3.581700 -5.246600 8.097900 -96.334493 1.747530 5.749854 12.820338 -31.294157 -3.612848 1.857444 2.548744 28.200303 -7.125000 0.000000 0.000000 90.049966 2.682825 11.390685 -10.825410 22.884010 -2.183661 -0.815043 0.269488 19.427087 7.125000 0.000000 0.000000 
43.166219 17.601190 5.421480 -94.365796 -84.492754 108.317974 -11.606179 -6.892202 -6.119255 -0.137243 3.449568 8.539493 -0.098434 2.507005 -3.145861 0.024000 -0.999300 -2.747000 28.716513 5.940214 -8.671144 -0.409954 -5.074914 12.839836 1.619046 -13.326049 -11.181300 -1.008800 -6.390800 17.922500 1.387185 -2.113737 -5.583763 5.160084 -1.331195 -0.586736 7.535137 -10.732342 8.583361 3.542600 -5.229100 8.154900 -96.492230 1.588598 4.926807 12.656882 -31.080986 -3.571319 1.896356 2.468974 28.411455 -7.125000 0.000000 0.000000 90.080637 2.816737 11.041216 -10.735809 22.736057 -2.138966 -0.824314 0.263364 19.638769 7.125000 0.000000 0.000000 
